<?xml version="1.0" standalone="no"?>
<!DOCTYPE svg PUBLIC "-//W3C//DTD SVG 20010904//EN"
 "http://www.w3.org/TR/2001/REC-SVG-20010904/DTD/svg10.dtd">
<svg version="1.0" xmlns="http://www.w3.org/2000/svg"
 width="626.000000pt" height="626.000000pt" viewBox="0 0 626.000000 626.000000"
 preserveAspectRatio="xMidYMid meet">

<g transform="translate(0.000000,626.000000) scale(0.100000,-0.100000)"
fill="#000000" stroke="none">
<path d="M2302 5764 c-12 -8 -22 -20 -22 -26 0 -6 -16 -28 -36 -50 -62 -69
-94 -171 -94 -303 l0 -74 -42 19 c-24 11 -50 19 -58 19 -8 0 3 -7 25 -15 22
-8 51 -24 65 -35 l25 -21 -25 7 c-54 13 -177 17 -216 6 -111 -30 -189 -120
-218 -253 -6 -25 -9 -26 -34 -17 -17 6 -38 29 -57 60 -54 92 -140 151 -215
148 -15 -1 -8 -5 19 -10 95 -19 180 -99 222 -210 l20 -51 -28 6 c-40 10 -150
77 -214 130 -29 24 -55 44 -56 42 -1 -1 4 -24 12 -51 32 -106 7 -348 -49 -470
-27 -60 -62 -88 -134 -108 l-43 -11 7 -40 c3 -22 6 -59 6 -83 l-1 -42 45 29
c26 16 59 32 76 35 22 5 28 11 22 23 -3 10 -9 39 -12 65 -4 46 -3 49 39 90 68
64 156 92 289 91 67 0 128 -6 169 -18 35 -9 65 -16 67 -14 2 2 -24 42 -57 88
-64 89 -134 208 -127 215 7 7 107 -34 137 -56 31 -23 61 -69 72 -113 8 -28 8
-27 4 8 -5 47 -47 103 -98 131 -39 21 -74 74 -40 60 56 -24 91 -34 113 -34 14
1 3 6 -25 13 -43 11 -95 32 -95 39 0 1 44 2 98 2 88 0 101 3 143 27 62 37 101
83 144 173 21 42 41 72 47 69 14 -9 1 -88 -28 -159 -13 -33 -20 -55 -15 -50
15 15 48 106 56 153 l7 42 39 -34 c55 -47 152 -93 234 -112 39 -9 80 -20 93
-25 30 -12 89 -12 96 0 21 34 -36 53 -88 30 -46 -21 -212 33 -311 101 -48 33
-60 55 -22 41 13 -5 50 -12 83 -15 l59 -6 -62 14 c-82 17 -94 30 -19 21 37 -4
56 -3 52 3 -3 5 9 13 27 16 49 9 150 60 231 116 l73 50 58 -35 c33 -19 63 -35
68 -35 14 0 -16 26 -53 45 -29 15 -31 18 -16 27 47 26 74 27 110 2 20 -14 34
-29 31 -33 -2 -5 4 -16 15 -26 11 -10 20 -14 20 -8 0 12 -38 63 -60 80 -13 10
-11 12 10 17 14 3 49 7 78 9 50 4 54 2 87 -34 39 -44 65 -91 90 -169 l18 -55
22 70 c25 82 44 121 81 164 27 32 27 32 98 25 39 -4 74 -8 77 -10 4 -2 -9 -20
-27 -40 -19 -19 -34 -43 -34 -52 0 -12 3 -14 8 -4 5 6 17 19 28 28 10 8 13 13
7 9 -7 -3 -13 -2 -13 3 0 4 17 18 39 30 36 21 41 21 75 7 35 -15 49 -35 23
-35 -18 0 -53 -27 -46 -35 4 -3 30 8 59 26 l51 32 72 -50 c88 -62 159 -98 223
-115 l49 -13 -45 -7 c-25 -4 -2 -4 50 -2 107 6 112 -3 13 -22 -38 -6 -57 -12
-43 -13 14 0 53 5 88 13 34 7 62 10 61 7 -2 -27 -148 -103 -252 -131 -65 -18
-84 -20 -107 -10 -42 17 -85 10 -85 -15 0 -15 8 -21 34 -23 19 -2 44 1 55 6
12 6 52 17 91 26 87 20 186 66 242 112 37 31 43 33 43 16 0 -30 37 -145 54
-167 8 -11 4 7 -9 40 -27 68 -40 136 -31 162 5 12 19 -9 51 -74 74 -152 168
-212 312 -200 35 2 63 3 63 1 0 -9 -50 -29 -100 -40 -35 -8 -45 -13 -27 -13
15 -1 52 8 82 18 45 16 55 17 55 5 0 -7 -17 -25 -38 -38 -49 -31 -100 -89
-108 -124 -3 -15 -7 -33 -10 -40 -2 -7 0 -11 5 -8 5 3 12 22 15 42 10 53 77
115 146 136 30 9 57 15 58 13 6 -6 -73 -136 -133 -219 -31 -43 -55 -80 -53
-81 2 -2 41 6 88 17 83 19 215 21 290 4 14 -3 7 1 -15 8 -66 24 -212 19 -307
-10 -40 -12 -14 15 33 36 66 28 138 35 213 21 61 -11 140 -51 116 -59 -10 -4
72 -52 89 -52 2 0 -15 17 -37 38 -22 20 -44 48 -48 62 -6 22 -5 23 10 11 26
-21 78 -89 80 -105 1 -7 14 -28 30 -47 24 -28 27 -39 23 -74 -3 -22 -9 -50
-13 -62 -5 -18 -2 -23 12 -23 9 0 41 -13 71 -30 29 -16 54 -30 57 -30 2 0 3
19 2 43 0 23 2 58 7 78 7 36 7 37 -35 48 -66 17 -105 46 -131 98 -66 130 -90
395 -48 507 13 33 22 38 -90 -48 -62 -47 -185 -113 -195 -104 -9 10 32 100 66
145 47 63 105 102 166 112 42 8 44 9 14 10 -72 2 -147 -51 -208 -147 -33 -50
-92 -92 -77 -55 3 10 8 43 10 73 l4 55 -8 -53 c-5 -29 -11 -55 -14 -58 -2 -3
-9 15 -15 38 -24 94 -103 177 -196 208 -41 13 -193 9 -230 -6 -43 -17 -2 19
48 42 28 13 45 24 38 24 -7 0 -31 -9 -54 -20 -28 -13 -45 -17 -53 -10 -7 5
-14 8 -17 5 -5 -6 -52 53 -122 153 -21 30 -35 56 -33 58 9 9 108 -111 132
-160 14 -28 25 -44 25 -38 0 47 -115 187 -206 251 l-49 34 41 -44 c38 -40 164
-213 164 -224 0 -3 -18 8 -41 25 -78 56 -141 73 -279 77 -120 2 -126 4 -145
28 -20 25 -53 36 -39 13 5 -7 3 -8 -5 -4 -7 5 -10 11 -7 14 4 3 -4 16 -16 29
-28 30 -12 30 21 1 15 -14 20 -16 12 -5 -8 10 -28 28 -45 40 -22 15 -27 16
-17 4 7 -9 10 -17 5 -17 -4 0 3 -11 15 -24 12 -13 19 -26 14 -29 -10 -6 -41
24 -69 68 -18 27 -18 29 -1 22 11 -4 16 -3 12 3 -11 18 -33 10 -37 -14 -3 -14
1 -42 8 -62 7 -21 12 -39 11 -40 -1 0 -38 4 -82 9 -64 9 -84 15 -98 34 -54 69
-151 70 -222 4 -25 -24 -43 -30 -110 -39 -44 -5 -81 -8 -83 -6 -2 1 1 11 7 22
17 31 14 102 -3 102 -8 0 -18 -4 -21 -10 -4 -6 1 -7 11 -3 15 5 15 3 -2 -23
-28 -46 -46 -64 -56 -58 -5 3 -2 15 8 25 9 10 14 19 9 19 -4 0 -1 8 6 18 13
15 12 16 -4 3 -9 -8 -15 -16 -12 -19 3 -3 -7 -19 -22 -35 -16 -17 -23 -27 -16
-23 6 3 14 2 17 -3 7 -10 -13 -9 -31 2 -7 4 -20 -4 -32 -21 -19 -28 -20 -28
-108 -24 -129 6 -269 -35 -340 -101 -13 -11 -23 -15 -23 -9 0 6 5 14 10 17 6
4 34 41 62 83 29 42 72 99 97 126 l46 50 -46 -33 c-74 -52 -156 -142 -194
-211 l-35 -65 0 71 c0 89 31 213 68 267 22 34 38 45 82 59 58 19 75 35 58 55
-14 17 -39 16 -66 -3z m528 -249 c-9 -29 -18 -37 -52 -45 -45 -13 -60 -7 -28
10 18 10 19 14 9 28 -11 14 -11 15 1 5 11 -11 19 -8 42 14 15 15 29 34 29 42
1 12 2 12 6 -2 2 -9 -1 -33 -7 -52z m639 4 c28 -29 51 -53 51 -54 0 -11 -80
21 -85 34 -11 25 -24 71 -21 71 2 0 26 -23 55 -51z m-1194 -81 c-73 -101 -95
-128 -95 -113 0 33 143 225 157 211 3 -2 -25 -46 -62 -98z m295 -2 c-11 -14
-110 -49 -118 -42 -7 8 84 56 107 56 19 0 21 -3 11 -14z m1197 -12 c25 -14 43
-28 40 -30 -6 -7 -101 27 -117 42 -26 25 29 17 77 -12z m-1318 12 c-54 -49
-103 -86 -111 -86 -16 0 30 48 67 71 26 16 57 27 44 15z m1399 -10 c37 -19 95
-80 67 -70 -11 4 -31 18 -45 31 -14 13 -34 30 -45 38 -26 19 -12 19 23 1z
m-1218 0 c0 -10 -123 -86 -139 -86 -36 0 -81 13 -81 23 0 6 22 8 58 5 31 -3
47 -4 35 -1 -13 2 -23 8 -23 13 0 7 52 22 85 25 6 0 19 6 30 13 20 11 35 15
35 8z m1092 -23 c32 -9 55 -19 52 -24 -3 -5 13 -9 35 -9 56 0 52 -16 -5 -25
-39 -5 -52 -3 -75 14 -16 12 -32 21 -36 21 -4 1 -21 12 -38 26 -21 18 -24 24
-10 19 11 -4 46 -14 77 -22z m-1322 -82 c40 -6 43 -8 25 -18 -41 -23 -140 -37
-186 -26 l-44 10 45 21 c47 22 86 25 160 13z m1610 -7 c22 -9 40 -20 40 -24 0
-25 -136 -18 -205 11 l-30 12 35 7 c62 13 119 10 160 -6z m-1937 -33 c17 -6
16 -8 -6 -20 -14 -7 -31 -24 -37 -37 -10 -18 -19 -22 -37 -18 -41 11 -69 -3
-87 -45 -16 -34 -23 -39 -62 -45 -61 -8 -80 -20 -103 -64 l-20 -37 0 30 c-1
87 84 189 194 232 33 13 130 16 158 4z m2283 -8 c68 -23 145 -102 168 -171 22
-64 17 -104 -6 -52 -21 48 -38 60 -97 67 -48 5 -53 9 -67 42 -18 43 -29 51
-73 51 -24 0 -44 10 -71 34 -21 19 -36 37 -32 40 12 13 131 5 178 -11z m-2226
-43 c-6 -12 -24 -23 -41 -27 -16 -3 -29 -9 -29 -14 0 -4 13 -4 30 1 l30 9 -21
-41 c-61 -120 -183 -189 -285 -162 -19 5 -16 10 30 58 46 48 55 53 84 48 25
-3 39 1 58 19 13 12 24 27 24 32 0 5 -9 -2 -21 -17 -14 -17 -30 -26 -50 -26
-16 0 -29 3 -29 8 0 11 96 62 104 55 3 -3 6 -1 6 5 0 7 6 12 14 12 8 0 16 4
18 9 3 10 69 51 81 51 4 0 3 -9 -3 -20z m2045 -5 c34 -21 37 -24 17 -25 -29 0
-58 15 -66 35 -8 21 3 19 49 -10z m31 -35 c23 0 34 -5 34 -14 0 -28 50 -76 78
-75 l27 1 -29 7 c-16 3 -38 18 -49 33 -55 74 44 17 139 -79 l61 -62 -38 -6
c-98 -17 -192 38 -263 152 -30 49 -32 57 -10 49 9 -3 31 -6 50 -6z m-2766
-213 c0 -70 -22 -175 -45 -215 l-16 -27 7 35 c20 106 23 203 9 290 l-6 35 26
-28 c21 -24 25 -38 25 -90z m410 94 c-13 -25 -75 -63 -97 -59 -11 2 1 15 38
40 62 42 74 46 59 19z m2611 -13 c52 -34 64 -54 27 -42 -34 10 -67 34 -79 55
-14 26 -5 24 52 -13z m402 5 c-9 -30 -9 -203 0 -243 3 -14 8 -36 12 -50 5 -22
3 -26 -19 -28 -15 -1 -29 5 -35 16 -6 9 -11 14 -11 10 0 -4 -18 12 -39 35 -22
23 -38 43 -37 44 1 1 18 -2 38 -8 29 -7 38 -16 41 -37 5 -25 5 -25 3 3 -1 26
-7 32 -48 46 -26 8 -51 18 -54 22 -7 7 74 137 85 137 3 0 7 -26 9 -58 2 -55
39 -199 48 -190 2 3 -3 25 -12 49 -9 24 -18 85 -21 135 -5 79 -3 95 13 118 25
33 36 33 27 -1z m-3366 -101 c17 -26 36 -57 42 -70 13 -24 16 -22 -54 -44 -25
-8 -40 -19 -41 -31 -1 -11 0 -12 3 -3 2 8 12 17 21 20 69 19 69 20 12 -38 -30
-31 -60 -56 -67 -56 -16 0 -17 -5 8 60 12 30 23 90 26 133 3 42 9 77 12 77 3
0 20 -21 38 -48z m172 -181 c45 -35 80 -65 78 -67 -1 -2 -23 2 -47 7 -57 13
-163 2 -219 -22 -37 -16 -42 -17 -37 -3 3 9 6 20 6 25 0 5 15 9 34 9 38 0 52
12 60 53 3 15 8 38 11 52 7 31 7 31 114 -54z m3036 42 c10 -66 26 -88 68 -91
20 -2 37 -7 37 -12 0 -5 3 -15 6 -24 5 -13 -1 -13 -39 4 -55 24 -178 36 -229
22 -21 -6 -38 -9 -38 -7 0 7 174 145 182 145 4 0 10 -17 13 -37z m-3177 -50
c-10 -21 -21 -29 -48 -31 l-35 -3 45 46 c47 48 64 43 38 -12z m3272 -25 c0 -4
-11 -8 -24 -8 -29 0 -56 34 -56 69 0 24 1 24 40 -14 22 -21 40 -43 40 -47z
m-3373 -65 c-14 -26 -37 -50 -79 -82 -30 -23 -20 -4 33 59 53 63 71 73 46 23z
m338 6 c46 -20 73 -46 39 -36 -107 32 -259 33 -341 3 -24 -8 -43 -13 -43 -11
0 3 18 17 40 31 70 46 216 53 305 13z m-472 -266 c4 -6 -15 -18 -48 -31 -30
-11 -55 -18 -55 -15 0 3 19 32 42 65 l43 61 6 -34 c3 -19 8 -40 12 -46z m3740
11 c20 -29 37 -54 37 -57 0 -2 -25 5 -55 17 -41 16 -53 25 -48 36 3 8 8 28 11
43 5 32 4 32 55 -39z"/>
<path d="M1990 5250 c0 -5 5 -10 10 -10 6 0 10 5 10 10 0 6 -4 10 -10 10 -5 0
-10 -4 -10 -10z"/>
<path d="M1830 5165 c0 -8 7 -15 15 -15 8 0 15 7 15 15 0 8 -7 15 -15 15 -8 0
-15 -7 -15 -15z"/>
<path d="M4250 5250 c0 -5 5 -10 10 -10 6 0 10 5 10 10 0 6 -4 10 -10 10 -5 0
-10 -4 -10 -10z"/>
<path d="M4405 5180 c-4 -6 -3 -16 3 -22 6 -6 12 -6 17 2 4 6 3 16 -3 22 -6 6
-12 6 -17 -2z"/>
<path d="M2040 5140 c0 -5 5 -10 10 -10 6 0 10 5 10 10 0 6 -4 10 -10 10 -5 0
-10 -4 -10 -10z"/>
<path d="M1897 5063 c-12 -11 -8 -23 8 -23 8 0 15 7 15 15 0 16 -12 20 -23 8z"/>
<path d="M4200 5145 c0 -8 5 -15 10 -15 6 0 10 7 10 15 0 8 -4 15 -10 15 -5 0
-10 -7 -10 -15z"/>
<path d="M4337 5064 c-13 -13 -7 -24 14 -24 11 0 19 5 17 12 -5 14 -22 21 -31
12z"/>
<path d="M3886 5763 c-9 -23 3 -32 60 -46 42 -10 54 -19 82 -61 41 -62 62
-135 72 -250 7 -86 7 -87 8 -26 3 123 -36 248 -97 315 -15 17 -35 42 -44 58
-20 32 -71 38 -81 10z"/>
<path d="M2734 5538 l-19 -23 23 19 c21 18 27 26 19 26 -2 0 -12 -10 -23 -22z"/>
<path d="M2778 5443 c7 -3 16 -2 19 1 4 3 -2 6 -13 5 -11 0 -14 -3 -6 -6z"/>
<path d="M2811 5436 c2 -2 15 -9 29 -15 24 -11 24 -11 6 3 -16 13 -49 24 -35
12z"/>
<path d="M1907 5363 c-12 -11 -8 -31 8 -37 17 -6 48 21 40 35 -7 10 -39 12
-48 2z"/>
<path d="M2838 5363 c12 -2 30 -2 40 0 9 3 -1 5 -23 4 -22 0 -30 -2 -17 -4z"/>
<path d="M3383 5363 c9 -2 25 -2 35 0 9 3 1 5 -18 5 -19 0 -27 -2 -17 -5z"/>
<path d="M4304 5355 c3 -9 6 -19 6 -21 0 -2 12 -4 26 -4 37 0 28 34 -10 38
-23 3 -28 0 -22 -13z"/>
<path d="M2008 5353 c7 -3 16 -2 19 1 4 3 -2 6 -13 5 -11 0 -14 -3 -6 -6z"/>
<path d="M4228 5353 c7 -3 16 -2 19 1 4 3 -2 6 -13 5 -11 0 -14 -3 -6 -6z"/>
<path d="M1701 5244 c0 -11 3 -14 6 -6 3 7 2 16 -1 19 -3 4 -6 -2 -5 -13z"/>
<path d="M4552 5240 c0 -14 2 -19 5 -12 2 6 2 18 0 25 -3 6 -5 1 -5 -13z"/>
<path d="M2475 5240 c33 -4 51 -7 41 -8 -11 -1 -17 -5 -13 -8 8 -9 67 6 67 17
0 5 -35 8 -77 7 l-78 -1 60 -7z"/>
<path d="M3696 5240 c5 -5 25 -12 44 -15 28 -4 30 -3 10 4 -24 8 -24 8 10 13
28 4 24 5 -19 6 -36 1 -52 -1 -45 -8z"/>
<path d="M2413 5213 c15 -2 39 -2 55 0 15 2 2 4 -28 4 -30 0 -43 -2 -27 -4z"/>
<path d="M3803 5213 c9 -2 25 -2 35 0 9 3 1 5 -18 5 -19 0 -27 -2 -17 -5z"/>
<path d="M1691 5194 c0 -11 3 -14 6 -6 3 7 2 16 -1 19 -3 4 -6 -2 -5 -13z"/>
<path d="M4562 5190 c0 -14 2 -19 5 -12 2 6 2 18 0 25 -3 6 -5 1 -5 -13z"/>
<path d="M1681 5114 c0 -27 4 -58 9 -69 4 -12 6 7 3 45 -7 79 -13 92 -12 24z"/>
<path d="M2090 5015 c-15 -18 -6 -45 14 -45 17 0 28 24 20 45 -8 19 -18 19
-34 0z"/>
<path d="M4136 5014 c-9 -25 19 -53 36 -36 9 9 10 17 2 29 -15 24 -30 27 -38
7z"/>
<path d="M1213 4879 c-13 -5 -25 -20 -29 -36 -4 -15 -21 -50 -39 -78 -43 -65
-65 -144 -64 -219 2 -61 2 -61 9 19 8 86 26 140 66 192 21 27 32 33 63 33 41
0 48 6 73 60 l15 35 -36 1 c-20 1 -46 -2 -58 -7z"/>
<path d="M4966 4853 c23 -55 32 -63 75 -63 31 0 42 -6 63 -33 39 -50 58 -104
67 -187 l8 -75 -3 76 c-3 76 -15 110 -78 225 -13 22 -27 51 -33 65 -9 20 -18
24 -62 27 l-52 3 15 -38z"/>
<path d="M5161 4474 c0 -11 3 -14 6 -6 3 7 2 16 -1 19 -3 4 -6 -2 -5 -13z"/>
<path d="M1096 4460 c21 -88 17 -112 -30 -194 -25 -43 -48 -88 -51 -100 -3
-11 8 4 25 34 17 30 38 65 48 77 17 23 17 23 17 -16 0 -22 -3 -37 -7 -35 -4 3
-5 -2 -2 -10 3 -8 -17 -58 -45 -111 -28 -53 -51 -102 -51 -109 0 -7 -12 -23
-26 -37 -39 -36 -54 -73 -53 -126 l2 -48 6 55 c8 66 25 99 48 96 20 -3 36 -59
26 -91 -10 -33 -40 -67 -47 -53 -5 10 -7 10 -12 1 -9 -21 -27 -14 -64 23 -19
20 -43 40 -53 46 -10 5 9 -18 42 -51 34 -34 61 -67 61 -73 0 -7 -12 -31 -25
-53 -14 -22 -25 -44 -25 -50 1 -5 8 2 16 18 15 28 27 37 19 15 -2 -7 0 -29 4
-48 l9 -35 2 35 c2 45 9 28 20 -51 8 -57 8 -54 4 31 -3 52 -5 104 -5 114 0 29
48 72 108 97 29 12 52 24 49 26 -2 3 -26 -5 -51 -16 -26 -12 -49 -21 -51 -21
-2 0 1 12 7 27 5 15 9 63 8 107 -2 79 0 84 51 186 56 112 78 145 113 169 15
11 12 2 -13 -29 -19 -24 -29 -41 -22 -37 9 6 11 2 8 -15 -3 -13 -5 -27 -5 -31
-1 -5 -5 -5 -11 -2 -5 3 -7 0 -4 -9 8 -20 -20 -69 -69 -125 l-41 -46 42 40
c29 27 59 72 91 141 45 93 94 154 123 154 6 0 9 2 6 5 -9 10 -93 -26 -128 -54
l-35 -28 -1 76 c-1 44 -9 93 -18 116 -9 22 -14 29 -10 15z"/>
<path d="M5136 4377 c-5 -26 -6 -66 -2 -87 4 -25 2 -40 -4 -40 -5 0 -10 4 -10
9 0 26 -164 102 -214 100 -12 -1 -4 -5 17 -10 89 -21 123 -56 181 -181 19 -43
37 -78 41 -78 3 0 -4 18 -14 39 -26 50 -37 106 -19 95 7 -5 -3 12 -22 36 -27
34 -30 41 -12 28 31 -21 58 -62 114 -174 45 -88 46 -93 50 -197 1 -59 2 -107
1 -107 -1 0 -25 9 -53 20 -69 27 -63 16 8 -16 31 -14 69 -37 84 -51 26 -25 26
-26 22 -147 -2 -66 -4 -127 -4 -133 0 -8 -15 -13 -40 -13 -22 0 -40 -2 -40 -5
0 -10 30 -65 36 -65 2 0 -2 14 -11 30 -19 36 -9 38 35 8 60 -41 69 -63 63
-152 -6 -74 -7 -77 -19 -50 -17 40 -17 17 2 -56 13 -51 14 -70 4 -111 -7 -26
-10 -54 -7 -61 3 -7 6 -2 7 12 1 25 1 25 16 5 15 -19 16 -18 10 20 -4 22 -3
35 1 29 4 -7 8 23 8 67 0 43 -3 71 -7 61 -4 -9 -7 14 -7 52 -1 50 5 81 19 111
20 42 66 93 75 84 2 -3 -9 -38 -26 -78 -17 -40 -29 -75 -27 -77 8 -7 69 156
62 167 -3 6 -20 9 -36 7 -27 -4 -29 -3 -23 21 3 14 33 71 65 126 71 121 90
176 90 258 0 77 -35 155 -92 205 -23 19 -28 32 -28 68 0 31 4 43 11 38 6 -3 3
5 -6 20 -15 23 -73 66 -88 66 -3 0 5 -11 18 -25 17 -16 25 -35 25 -60 0 -54
-5 -50 -107 70 -31 36 -29 47 5 29 15 -7 32 -14 37 -13 6 0 -10 11 -35 24 -25
12 -46 22 -48 20 -2 -2 12 -37 32 -79 39 -85 107 -160 173 -190 62 -28 88 -81
88 -181 0 -62 -5 -91 -23 -130 -24 -52 -97 -179 -118 -205 -6 -8 -15 -39 -19
-67 -6 -49 -25 -85 -25 -49 0 9 -4 16 -9 16 -17 0 -36 134 -27 185 5 26 11 33
23 28 12 -5 14 -1 9 18 -7 23 -6 23 8 5 9 -11 18 -36 22 -55 8 -53 12 -60 13
-25 1 18 -13 58 -29 89 -17 33 -28 66 -25 76 3 10 31 41 61 68 31 28 51 51 45
51 -6 0 -32 -21 -58 -46 -40 -38 -51 -44 -65 -35 -14 8 -18 8 -18 -1 0 -7 -6
-4 -12 7 -7 11 -17 26 -24 32 -7 7 -12 33 -12 58 1 25 3 43 6 40 3 -2 10 3 17
12 11 15 14 14 30 -11 10 -14 21 -52 25 -84 7 -54 7 -54 9 -14 1 53 -18 99
-57 136 -17 16 -29 32 -27 37 3 4 -18 51 -46 104 -28 53 -48 103 -45 111 3 8
2 13 -2 10 -4 -2 -7 13 -7 35 0 21 0 39 1 39 9 0 72 -114 86 -154 9 -28 17
-42 17 -31 1 25 -31 96 -71 158 -18 28 -33 68 -37 100 l-7 52 -8 -48z m253
-252 c35 -36 60 -65 56 -65 -21 0 -134 103 -135 123 0 17 19 3 79 -58z"/>
<path d="M1581 4366 c-13 -7 -45 -12 -75 -10 -50 3 -50 3 -9 -5 28 -5 49 -16
63 -34 22 -28 48 -33 109 -21 l31 6 -22 32 c-35 50 -53 56 -97 32z"/>
<path d="M4586 4346 c-14 -19 -26 -37 -26 -40 0 -2 25 -8 57 -12 55 -6 57 -6
82 24 24 29 34 32 106 40 56 7 66 10 35 10 -25 1 -65 -3 -90 -8 -33 -6 -52 -4
-72 6 -42 22 -63 17 -92 -20z"/>
<path d="M1408 4363 c6 -2 18 -2 25 0 6 3 1 5 -13 5 -14 0 -19 -2 -12 -5z"/>
<path d="M1343 4353 c9 -2 23 -2 30 0 6 3 -1 5 -18 5 -16 0 -22 -2 -12 -5z"/>
<path d="M960 4289 c-26 -15 -29 -18 -10 -13 14 3 31 11 38 16 6 6 12 7 12 2
0 -11 -31 -51 -87 -112 l-43 -47 0 43 c0 32 6 49 25 67 31 32 18 32 -24 1 -32
-24 -77 -77 -53 -62 9 5 12 -6 12 -38 0 -36 -5 -49 -27 -68 -33 -29 -46 -48
-74 -107 -17 -35 -20 -58 -17 -120 3 -79 23 -129 112 -286 51 -90 53 -102 16
-102 -16 0 -33 -3 -36 -6 -4 -4 12 -53 34 -109 23 -57 42 -97 42 -90 0 7 -16
52 -35 99 -20 47 -33 88 -30 91 10 11 54 -41 74 -88 18 -41 20 -65 18 -171 -1
-68 0 -137 4 -154 5 -24 7 -26 8 -7 1 27 21 20 21 -8 0 -10 4 -21 9 -24 5 -3
1 27 -10 66 -17 67 -17 78 -4 129 18 68 18 84 1 45 -12 -27 -13 -24 -19 50 -7
89 2 110 63 152 40 27 46 23 26 -17 -9 -16 -16 -34 -16 -38 0 -10 49 69 50 80
0 4 -18 7 -40 7 -27 0 -43 5 -46 15 -9 21 -24 8 -24 -20 0 -13 -5 -27 -11 -31
-8 -5 -10 1 -7 20 3 14 1 29 -5 33 -6 4 -8 -9 -4 -35 8 -64 -9 -50 -22 17 -6
33 -15 61 -19 63 -14 6 -115 191 -128 236 -36 118 -1 242 78 278 61 27 134
104 168 176 44 93 41 102 -20 67z m-10 -108 c0 -13 -119 -121 -133 -121 -6 0
18 29 53 65 63 63 80 75 80 56z"/>
<path d="M1258 4146 c-27 -34 -48 -66 -48 -71 0 -5 6 0 14 10 12 17 14 15 29
-26 8 -24 16 -37 16 -28 1 8 10 25 21 37 17 18 20 33 18 81 l-3 59 -47 -62z
m25 -6 c-3 -11 -9 -20 -14 -20 -11 0 -11 3 -3 24 9 23 23 20 17 -4z m7 -56
c-18 -21 -24 -10 -9 18 8 14 14 18 17 10 2 -7 -2 -19 -8 -28z"/>
<path d="M4944 4194 c3 -9 6 -31 6 -50 0 -22 4 -33 13 -31 7 1 12 -9 13 -23 0
-14 3 -32 7 -40 3 -8 8 -24 10 -35 3 -14 5 -10 6 10 1 17 7 40 15 53 12 23 13
23 31 -17 10 -23 20 -39 23 -37 6 7 -42 91 -81 143 -32 43 -54 57 -43 27z m50
-50 c8 -21 8 -24 -3 -24 -5 0 -11 9 -14 20 -6 24 8 27 17 4z"/>
<path d="M1001 4124 c0 -11 3 -14 6 -6 3 7 2 16 -1 19 -3 4 -6 -2 -5 -13z"/>
<path d="M993 4065 c0 -22 2 -30 4 -17 2 12 2 30 0 40 -3 9 -5 -1 -4 -23z"/>
<path d="M4950 4090 c0 -5 5 -10 11 -10 5 0 7 5 4 10 -3 6 -8 10 -11 10 -2 0
-4 -4 -4 -10z"/>
<path d="M5262 4065 c0 -16 2 -22 5 -12 2 9 2 23 0 30 -3 6 -5 -1 -5 -18z"/>
<path d="M5185 4040 c21 -22 41 -40 44 -40 3 0 -13 18 -34 40 -21 22 -41 40
-44 40 -3 0 13 -18 34 -40z"/>
<path d="M4942 3995 l-2 -80 37 -25 c35 -24 71 -85 58 -99 -4 -3 -23 12 -42
34 -20 22 -31 30 -25 19 7 -12 26 -34 43 -48 17 -15 43 -45 58 -66 14 -22 69
-78 121 -126 l95 -87 -101 104 c-102 104 -120 130 -144 202 -11 35 -10 40 12
70 35 47 45 67 13 30 -14 -18 -31 -33 -36 -33 -15 0 -10 32 8 54 10 12 11 15
3 9 -22 -20 -30 -16 -31 15 l-1 27 -7 -28 -6 -29 -22 24 c-14 14 -23 40 -26
68 -2 29 -4 16 -5 -35z"/>
<path d="M1312 4014 c-1 -18 -12 -40 -26 -53 l-25 -23 -4 38 -4 39 -1 -37 c-2
-43 -14 -48 -36 -16 -9 12 -16 18 -16 12 0 -6 9 -19 20 -29 20 -18 26 -45 14
-58 -8 -8 -40 32 -53 65 -7 17 -10 19 -10 5 -1 -9 12 -35 28 -57 28 -39 31
-67 11 -95 -4 -5 -10 -23 -14 -40 -5 -18 -47 -70 -114 -139 l-107 -110 95 88
c52 48 107 105 121 126 15 22 41 51 58 66 31 26 67 82 58 90 -2 3 -10 -9 -16
-25 -14 -32 -58 -78 -67 -69 -12 12 26 77 55 94 37 22 44 42 38 110 -2 27 -4
35 -5 18z"/>
<path d="M1180 3994 c0 -8 5 -12 10 -9 6 4 8 11 5 16 -9 14 -15 11 -15 -7z"/>
<path d="M5060 4001 c0 -6 5 -13 10 -16 6 -3 10 1 10 9 0 9 -4 16 -10 16 -5 0
-10 -4 -10 -9z"/>
<path d="M5286 3917 c3 -10 9 -15 12 -12 3 3 0 11 -7 18 -10 9 -11 8 -5 -6z"/>
<path d="M5332 3600 c0 -19 2 -27 5 -17 2 9 2 25 0 35 -3 9 -5 1 -5 -18z"/>
<path d="M872 3600 c0 -14 2 -19 5 -12 2 6 2 18 0 25 -3 6 -5 1 -5 -13z"/>
<path d="M911 3524 c0 -11 3 -14 6 -6 3 7 2 16 -1 19 -3 4 -6 -2 -5 -13z"/>
<path d="M5347 3493 c-11 -10 -8 -53 3 -53 6 0 10 14 10 30 0 31 -2 35 -13 23z"/>
<path d="M976 3355 c-9 -26 -7 -32 5 -12 6 10 9 21 6 23 -2 3 -7 -2 -11 -11z"/>
<path d="M5276 3350 c3 -14 11 -32 16 -40 6 -10 7 -7 2 10 -3 14 -11 32 -16
40 -6 10 -7 7 -2 -10z"/>
<path d="M872 2983 c-15 -48 -8 -55 8 -8 7 20 10 38 8 41 -3 2 -10 -13 -16
-33z"/>
<path d="M5301 2964 c0 -11 3 -14 6 -6 3 7 2 16 -1 19 -3 4 -6 -2 -5 -13z"/>
<path d="M910 2937 c0 -29 -52 -112 -79 -127 -24 -13 -26 -5 -6 30 8 14 14 30
14 35 0 6 -9 -7 -20 -28 -24 -46 -19 -57 27 -57 l34 0 -15 -37 c-9 -21 -40
-78 -70 -128 -95 -158 -107 -261 -45 -372 18 -31 44 -66 59 -78 23 -20 26 -30
25 -72 -1 -59 5 -73 48 -97 33 -19 33 -19 17 0 -19 22 -36 104 -21 104 5 0 24
-18 43 -41 19 -22 44 -51 57 -65 25 -28 31 -54 7 -34 -8 7 -15 8 -15 3 0 -5
12 -15 26 -22 24 -10 25 -10 19 11 -4 13 -23 54 -43 91 -37 72 -92 127 -153
154 -58 25 -94 98 -94 188 1 77 22 131 104 270 l41 70 1 -40 c1 -22 5 -3 10
42 9 100 32 151 26 60 -2 -32 0 -52 4 -45 5 7 9 29 10 48 0 34 1 34 16 -15 13
-41 17 -46 23 -30 4 11 5 24 3 28 -3 4 7 5 20 1 14 -3 34 -3 45 0 18 6 18 9
-12 66 -17 32 -32 57 -34 55 -2 -2 8 -26 23 -55 l26 -52 -23 7 c-52 16 -93 72
-89 123 1 17 -1 32 -4 32 -3 0 -5 -10 -5 -23z m-32 -781 c27 -23 72 -71 72
-78 0 -18 -20 -4 -80 59 -56 57 -51 67 8 19z"/>
<path d="M5351 2921 c-1 -36 -7 -50 -40 -82 -21 -22 -46 -39 -55 -39 -14 0
-13 7 8 48 13 26 26 58 30 72 4 14 -8 -6 -27 -45 -18 -38 -34 -74 -35 -80 -1
-5 13 -10 31 -10 24 0 35 -6 44 -25 11 -24 12 -23 24 25 l14 50 6 -40 6 -40 2
50 c2 44 3 47 12 25 6 -14 14 -59 18 -100 5 -47 9 -60 10 -35 1 40 1 40 61
-65 95 -168 108 -258 53 -361 -18 -34 -35 -51 -66 -64 -75 -33 -161 -142 -191
-242 l-7 -22 52 21 c29 12 47 24 40 26 -6 2 -17 0 -24 -6 -19 -15 -47 -22 -47
-13 0 5 9 20 20 33 78 92 93 108 100 108 14 0 -2 -84 -19 -104 -15 -18 -13
-18 19 2 19 11 42 31 50 44 8 12 10 19 4 15 -7 -4 -11 9 -12 38 0 37 5 49 28
69 16 13 43 50 62 82 29 53 33 67 33 134 -1 81 -10 105 -121 310 l-46 85 41 3
c22 2 41 7 41 12 0 5 -6 7 -12 5 -7 -2 -20 1 -29 8 -25 19 -67 91 -72 123 -3
22 -4 18 -6 -15z m49 -786 c-61 -61 -80 -75 -80 -57 0 13 60 71 110 105 43 30
36 19 -30 -48z"/>
<path d="M5401 2947 c-1 -12 41 -108 45 -104 3 2 -7 28 -20 58 -14 30 -25 50
-25 46z"/>
<path d="M846 2915 c-9 -26 -7 -32 5 -12 6 10 9 21 6 23 -2 3 -7 -2 -11 -11z"/>
<path d="M5343 2700 c0 -25 2 -35 4 -22 2 12 2 32 0 45 -2 12 -4 2 -4 -23z"/>
<path d="M1091 2625 c85 -89 108 -120 122 -162 21 -64 21 -68 0 -99 -12 -19
-18 -22 -24 -12 -11 16 -10 -66 0 -102 l7 -25 6 27 c3 15 1 25 -3 22 -17 -10
-8 51 10 74 23 26 27 27 35 5 4 -10 -2 -26 -16 -42 -19 -22 -20 -23 -2 -8 28
24 38 22 68 -14 l26 -31 0 53 c0 29 -3 50 -6 46 -11 -11 -72 43 -79 70 -8 35
1 40 28 17 13 -10 7 -3 -13 16 -20 19 -46 51 -58 70 -12 19 -63 73 -114 120
l-93 84 106 -109z"/>
<path d="M5173 2630 c-57 -54 -103 -104 -103 -110 0 -7 -19 -31 -43 -54 -23
-22 -32 -32 -20 -22 27 23 36 17 28 -17 -8 -32 -71 -83 -78 -64 -3 6 -6 -12
-6 -41 l-1 -54 31 26 c35 30 40 31 59 14 8 -7 6 -3 -4 9 -13 15 -15 26 -8 38
8 15 12 14 31 -11 18 -23 22 -37 17 -74 -3 -32 -3 -38 4 -20 13 38 12 100 -2
97 -6 -1 -18 10 -26 24 -14 24 -14 32 3 85 16 52 31 72 123 167 58 59 104 107
101 107 -2 0 -50 -45 -106 -100z"/>
<path d="M5301 2696 c-1 -22 4 -68 10 -103 11 -61 10 -65 -12 -90 -13 -14 -55
-41 -94 -59 -74 -36 -71 -47 4 -14 24 11 46 19 48 17 1 -2 -2 -18 -8 -36 -7
-18 -9 -57 -6 -86 5 -52 5 -53 -40 -96 -29 -29 -63 -81 -98 -150 -31 -61 -67
-117 -85 -133 -35 -29 -29 -33 21 -12 43 18 89 54 89 69 0 7 -8 3 -18 -8 -9
-12 -26 -27 -37 -35 -13 -10 -11 -4 8 18 15 19 24 39 21 44 -4 6 -3 8 3 5 6
-4 8 3 6 17 -6 31 46 132 91 175 20 19 38 32 41 29 3 -2 -22 -57 -55 -121 -34
-65 -57 -117 -53 -117 4 0 7 -33 5 -72 -2 -40 1 -84 7 -98 9 -21 9 -19 5 15
-4 32 1 52 27 100 87 164 84 156 85 237 0 74 1 78 37 117 21 24 37 50 36 64
-1 19 -2 20 -6 2 -10 -38 -33 -63 -53 -58 -33 9 -31 89 3 135 19 26 22 27 29
11 3 -10 7 -12 7 -5 2 22 22 13 74 -33 28 -24 53 -43 55 -40 2 2 -15 20 -38
41 -22 20 -50 50 -61 65 -18 26 -19 30 -4 52 12 19 13 30 4 56 -9 24 -14 29
-20 19 -6 -8 -9 1 -10 27 0 22 -5 51 -9 65 -7 22 -8 20 -9 -14z m-55 -593
c-14 -41 -72 -143 -82 -143 -1 0 -2 24 0 53 2 40 14 73 47 135 l44 81 3 -40
c2 -23 -4 -61 -12 -86z"/>
<path d="M923 2685 c0 -22 2 -30 4 -17 2 12 2 30 0 40 -3 9 -5 -1 -4 -23z"/>
<path d="M956 2695 c-3 -9 -6 -32 -6 -51 0 -34 -22 -48 -34 -21 -3 6 -3 -1 1
-18 7 -37 -7 -26 -25 18 -12 30 -12 31 -7 4 3 -16 17 -46 30 -67 l24 -38 -25
-33 c-13 -19 -41 -49 -61 -66 -21 -18 -33 -33 -28 -33 6 0 32 21 59 45 38 35
52 42 63 34 9 -9 13 -9 13 0 0 6 10 1 21 -10 26 -26 38 -74 28 -109 -4 -14 -7
-21 -8 -16 -1 6 -7 2 -14 -9 -15 -19 -16 -18 -43 33 -10 19 -14 22 -14 9 0 -9
18 -37 40 -60 31 -34 38 -49 33 -68 -3 -13 -2 -21 2 -16 5 4 29 -30 53 -75 35
-63 46 -94 48 -136 3 -52 2 -54 -12 -34 -8 12 -12 27 -9 32 4 6 1 9 -6 8 -17
-4 -46 47 -63 112 -8 30 -15 45 -15 34 -1 -33 25 -100 65 -166 20 -33 43 -79
50 -102 l14 -41 -3 78 c-1 42 2 77 6 77 4 0 -19 52 -52 116 -34 64 -61 122
-61 127 0 6 18 -7 41 -28 40 -40 89 -121 95 -160 6 -38 10 -50 18 -63 13 -22
-3 -27 -19 -6 -8 10 -15 14 -15 7 0 -6 15 -22 33 -34 18 -13 28 -17 22 -8 -5
8 -2 7 7 -3 16 -18 97 -52 105 -44 2 2 -10 9 -27 16 -43 18 -75 60 -124 164
-30 62 -58 105 -90 136 -45 43 -46 46 -40 90 3 25 1 64 -5 85 -6 21 -9 40 -8
42 2 1 27 -6 55 -17 70 -27 66 -17 -7 15 -32 15 -71 40 -86 55 l-27 28 12 87
c12 82 10 115 -4 80z"/>
<path d="M901 2654 c0 -11 3 -14 6 -6 3 7 2 16 -1 19 -3 4 -6 -2 -5 -13z"/>
<path d="M5373 2619 c-7 -18 -11 -35 -8 -37 6 -6 27 48 23 60 -2 5 -9 -6 -15
-23z"/>
<path d="M922 2420 c0 -19 2 -27 5 -17 2 9 2 25 0 35 -3 9 -5 1 -5 -18z"/>
<path d="M5341 2424 c0 -11 3 -14 6 -6 3 7 2 16 -1 19 -3 4 -6 -2 -5 -13z"/>
<path d="M4965 2399 c-4 -6 -5 -12 -2 -15 2 -3 7 2 10 11 7 17 1 20 -8 4z"/>
<path d="M5003 2255 c0 -22 2 -30 4 -17 2 12 2 30 0 40 -3 9 -5 -1 -4 -23z"/>
<path d="M1261 2245 c-2 -49 -11 -85 -21 -85 -4 0 -13 14 -20 30 -7 17 -15 28
-18 26 -8 -9 93 -165 108 -166 3 0 6 37 7 83 1 56 -2 75 -8 59 -4 -12 -6 -29
-3 -37 4 -8 2 -15 -4 -15 -14 0 -25 34 -12 38 8 3 6 10 -4 21 -8 9 -16 32 -19
51 l-4 35 -2 -40z m29 -143 c0 -7 -4 -10 -10 -7 -5 3 -10 16 -10 28 0 18 2 19
10 7 5 -8 10 -21 10 -28z"/>
<path d="M5050 2190 c-13 -30 -30 -41 -30 -17 0 6 -4 18 -9 26 -8 12 -12 12
-25 2 -17 -15 -22 -36 -6 -26 12 7 12 3 4 -19 -3 -9 -11 -16 -16 -16 -6 0 -8
6 -5 13 2 6 1 21 -4 32 -4 12 -7 -10 -7 -58 l1 -78 26 25 c30 29 96 134 89
142 -3 2 -11 -9 -18 -26z m-59 -93 c-13 -13 -15 1 -4 30 7 17 8 17 11 -1 2
-10 -1 -23 -7 -29z"/>
<path d="M930 1980 c20 -13 33 -13 25 0 -3 6 -14 10 -23 10 -15 0 -15 -2 -2
-10z"/>
<path d="M1565 1939 c-25 -31 -31 -33 -118 -40 l-92 -8 108 4 c78 3 117 0 142
-11 32 -13 36 -13 55 9 28 29 42 55 33 60 -5 3 -29 7 -54 11 -44 6 -48 5 -74
-25z"/>
<path d="M4617 1960 c-20 -4 -40 -10 -43 -13 -7 -7 45 -77 58 -77 5 0 19 5 31
12 14 8 71 12 152 12 87 1 137 5 150 14 18 11 17 11 -10 5 -16 -5 -74 -8 -128
-8 l-98 0 -25 33 c-27 34 -27 34 -87 22z"/>
<path d="M1165 1863 c0 -32 -4 -70 -9 -85 -8 -26 -6 -28 20 -28 48 -1 111 -35
138 -77 58 -90 98 -317 78 -445 -6 -41 -14 -82 -18 -92 -4 -12 22 3 66 37 80
61 178 117 204 117 19 0 19 2 4 -41 -17 -50 -83 -144 -119 -170 -17 -12 -50
-27 -72 -35 -28 -8 -34 -13 -19 -13 54 -2 127 56 190 150 27 40 49 59 68 59 2
0 3 -17 0 -37 -2 -21 -1 -28 1 -15 2 12 9 22 14 22 5 0 9 -10 9 -22 1 -39 37
-105 82 -149 78 -75 174 -101 291 -76 37 7 67 10 67 6 0 -9 -44 -34 -99 -55
-31 -12 -32 -13 -7 -9 16 4 47 15 68 25 21 10 38 15 38 10 0 -4 8 -7 17 -6 16
1 171 -197 172 -219 0 -20 -112 112 -140 165 -16 30 -27 44 -23 30 16 -61 106
-171 195 -236 55 -40 74 -45 30 -8 -25 21 -181 227 -181 239 0 2 23 -12 51
-31 80 -54 165 -76 292 -76 103 -1 109 -2 124 -24 15 -24 51 -35 37 -12 -4 7
-3 8 5 4 6 -4 9 -11 6 -15 -2 -5 8 -19 23 -32 20 -18 22 -19 9 -3 -22 26 -12
38 15 16 23 -19 52 -72 40 -72 -4 0 -18 8 -31 17 -14 9 -21 11 -17 5 4 -7 20
-19 36 -27 29 -15 30 -14 36 11 4 15 0 42 -9 65 l-16 40 82 -6 c75 -7 85 -10
117 -41 65 -61 155 -62 218 -1 34 32 43 35 115 41 l77 6 -15 -30 c-17 -32 -20
-86 -6 -94 5 -3 12 6 15 19 8 30 60 88 70 78 3 -4 -4 -17 -16 -30 -12 -13 -17
-23 -12 -23 5 0 -2 -10 -16 -21 -23 -20 -23 -20 -2 -8 13 8 23 18 22 22 -1 5
11 23 27 39 15 17 22 27 14 23 -10 -6 -12 -4 -7 4 6 9 11 9 21 1 10 -8 18 -3
35 20 22 31 23 31 85 25 118 -13 266 25 352 91 18 14 33 23 33 20 0 -11 -125
-182 -165 -225 l-40 -45 35 24 c89 59 188 173 215 248 7 20 14 30 14 22 1 -12
3 -12 9 -2 7 10 18 8 53 -7 24 -12 51 -20 59 -20 8 0 -3 8 -26 17 -22 9 -52
25 -65 35 l-24 18 35 -6 c143 -24 219 -12 297 45 51 38 102 116 109 167 l4 38
-13 -40 c-21 -61 -42 -97 -79 -131 -65 -62 -158 -92 -239 -79 l-41 7 31 30
c17 17 31 35 31 40 0 6 14 8 33 5 45 -6 75 10 87 49 10 28 17 34 48 39 74 12
83 16 102 48 11 17 21 37 23 42 2 6 11 4 20 -4 13 -10 18 -32 19 -85 l2 -71 3
67 c2 39 -1 77 -8 89 -10 19 -9 21 6 16 9 -4 21 -7 26 -7 4 0 24 -24 43 -53
50 -79 102 -125 159 -142 28 -8 60 -15 71 -14 12 0 -1 6 -29 13 -68 17 -106
38 -143 80 -64 73 -110 176 -79 176 23 0 119 -53 182 -101 103 -79 100 -77 91
-54 -45 117 -21 386 45 517 24 47 84 88 139 95 33 5 40 9 34 22 -4 9 -9 46
-12 83 l-4 68 -29 -20 c-15 -12 -42 -26 -59 -32 -17 -5 -29 -13 -26 -15 3 -3
23 2 46 11 22 9 42 16 45 16 8 0 -76 -115 -91 -123 -7 -4 -14 -16 -14 -26 0
-10 -11 -28 -25 -41 -13 -12 -22 -26 -20 -30 3 -4 -18 -36 -45 -70 -41 -51
-50 -58 -50 -40 0 15 18 40 47 68 25 25 42 43 37 40 -178 -85 -271 -95 -442
-48 -37 10 -68 17 -69 16 -2 -2 21 -36 52 -77 51 -69 148 -230 142 -236 -2 -1
-29 7 -60 19 -80 29 -124 71 -147 138 -20 58 -27 50 -10 -11 7 -24 27 -51 58
-78 86 -74 92 -80 92 -90 0 -6 -19 -1 -42 9 -24 11 -52 19 -63 19 -11 0 1 -7
26 -15 84 -25 78 -39 -16 -36 -146 6 -220 -45 -300 -205 l-40 -78 -3 46 c-2
29 5 66 17 100 11 29 19 55 17 57 -8 8 -46 -111 -46 -144 l0 -35 -43 35 c-61
50 -142 90 -222 110 -39 9 -91 24 -117 32 -57 19 -90 11 -86 -19 3 -19 8 -22
43 -19 106 9 141 4 219 -26 79 -31 176 -89 176 -106 0 -4 -7 -6 -15 -2 -8 3
-38 8 -67 10 l-53 5 45 -10 c58 -14 80 -33 27 -24 -21 4 -48 3 -60 -2 -12 -6
-49 -19 -81 -29 -33 -10 -105 -48 -160 -85 l-99 -65 -56 33 c-30 18 -59 33
-64 33 -14 0 32 -38 55 -45 18 -6 17 -8 -6 -26 -13 -10 -35 -19 -49 -19 -28 0
-80 37 -71 51 3 5 -2 12 -10 15 -21 8 -20 21 2 27 10 3 6 5 -10 6 -16 0 -28
-3 -28 -7 0 -16 60 -92 73 -93 29 -3 -53 -17 -105 -18 -53 -1 -59 1 -81 32
-35 46 -63 103 -82 172 l-18 59 -18 -60 c-23 -74 -53 -129 -93 -172 -31 -34
-31 -34 -100 -28 -78 7 -86 11 -64 29 16 13 58 71 58 81 0 3 -10 6 -22 6 -16
0 -19 -3 -10 -9 10 -6 10 -10 -2 -21 -9 -7 -14 -16 -11 -20 7 -11 -19 -30 -62
-46 -26 -9 -31 -13 -16 -14 16 0 26 -11 39 -45 9 -25 15 -47 13 -48 -2 -2 -27
21 -55 50 -27 29 -44 53 -37 53 21 0 15 16 -9 28 -23 10 -22 10 9 22 17 6 34
18 37 25 6 17 -15 10 -66 -22 -21 -13 -41 -23 -46 -23 -5 0 -33 17 -63 38
-128 91 -270 149 -343 139 -50 -7 -34 8 24 22 l45 10 -53 -5 c-29 -2 -60 -7
-70 -10 -9 -3 -2 8 16 24 45 40 150 90 238 112 67 17 76 18 104 4 39 -20 80
-11 80 16 0 28 -42 36 -93 17 -23 -8 -67 -20 -98 -26 -74 -16 -187 -70 -237
-115 l-39 -36 -6 51 c-4 27 -18 74 -32 102 -26 53 -25 50 7 -42 11 -29 18 -72
16 -95 l-3 -41 -43 83 c-82 160 -148 205 -296 206 -91 1 -91 1 -88 26 1 14 7
27 13 29 57 19 140 125 138 176 0 11 -6 2 -13 -21 -16 -52 -49 -95 -89 -119
-38 -23 -127 -55 -127 -46 0 12 115 196 157 251 23 30 41 56 39 57 -1 1 -26
-4 -56 -12 -148 -40 -256 -39 -374 5 -65 25 -132 81 -141 118 -3 16 0 46 7 67
l13 40 -75 37 c-41 21 -75 38 -75 38 0 0 0 -26 0 -57z m133 -19 c2 -1 -2 -21
-9 -43 l-12 -41 -34 47 c-60 83 -60 84 0 60 28 -12 53 -22 55 -23z m111 -239
c17 -20 31 -43 31 -53 -1 -12 -13 -3 -41 28 -22 25 -45 53 -50 63 -9 16 -8 17
9 8 11 -6 33 -26 51 -46z m126 -22 c58 -12 85 -13 153 -3 46 6 94 15 108 20
40 16 27 -6 -18 -30 -85 -45 -262 -36 -323 16 -22 18 -24 24 -10 19 11 -4 52
-13 90 -22z m3281 2 c-72 -58 -258 -62 -344 -7 -12 8 -21 16 -19 18 2 2 39 -3
83 -12 87 -17 187 -13 251 10 55 20 62 18 29 -9z m-3179 -50 l112 0 -27 -23
c-71 -60 -141 -112 -151 -112 -5 0 -13 21 -17 48 -8 59 -28 82 -71 82 -26 0
-33 4 -33 19 0 19 1 19 38 3 27 -12 67 -16 149 -17z m3183 15 c0 -15 -7 -20
-28 -20 -44 0 -69 -24 -76 -75 -4 -24 -12 -47 -17 -51 -9 -5 -143 90 -167 119
-8 9 11 11 86 9 86 -2 149 10 200 37 1 0 2 -8 2 -19z m-3380 -75 c8 -55 13
-61 65 -74 25 -6 45 -17 45 -23 0 -6 -19 -41 -42 -77 l-43 -65 -8 69 c-7 68
-44 211 -52 203 -2 -2 5 -33 16 -68 14 -41 22 -95 23 -147 1 -77 -1 -84 -26
-109 l-27 -27 9 39 c13 53 12 168 -1 238 -12 66 -7 89 18 84 12 -2 20 -16 23
-43z m82 28 c15 -18 30 -73 20 -73 -9 0 -82 73 -82 82 0 15 47 8 62 -9z m3288
9 c0 -4 -21 -28 -46 -52 -32 -32 -45 -39 -41 -25 3 11 8 32 11 47 3 14 14 29
24 31 29 8 52 7 52 -1z m63 -28 c-13 -187 -14 -254 -5 -286 13 -48 0 -49 -29
-2 -19 32 -21 45 -16 108 4 40 15 101 26 136 11 34 16 59 12 54 -17 -18 -41
-111 -49 -184 l-8 -75 -42 64 c-23 35 -42 70 -42 77 0 7 19 18 43 24 50 14 67
33 67 76 0 31 13 45 35 40 6 -2 9 -16 8 -32z m-3358 -72 c-28 -6 -65 26 -65
55 l0 27 41 -39 c30 -30 36 -41 24 -43z m3305 56 c0 -34 -12 -47 -50 -54 l-35
-7 40 42 c21 22 40 41 42 41 2 0 3 -10 3 -22z m-2862 -223 c46 -20 105 -76
138 -133 14 -24 24 -45 22 -47 -1 -1 -22 0 -45 4 -33 5 -47 13 -65 40 -13 19
-29 36 -36 39 -7 2 -2 -7 12 -22 23 -22 34 -46 21 -46 -2 0 -25 13 -50 29 -28
18 -41 31 -33 34 7 3 4 6 -7 6 -12 1 -38 21 -58 46 -21 25 -45 45 -52 45 -8 0
-15 5 -15 10 0 16 126 12 168 -5z m2517 6 c3 -5 -4 -12 -15 -16 -11 -4 -34
-24 -52 -46 -28 -34 -36 -39 -74 -39 -34 0 -47 -5 -63 -26 -12 -15 -21 -32
-21 -38 0 -6 9 4 20 22 17 27 26 32 57 32 l38 0 -49 -31 c-27 -17 -63 -33 -80
-35 -17 -2 -43 -6 -58 -9 -33 -5 -33 -4 -12 37 25 49 96 120 139 139 43 20
159 26 170 10z m-2675 -21 c34 -17 73 -60 55 -60 -11 0 -105 65 -105 72 0 12
7 10 50 -12z m2720 11 c0 -9 -91 -71 -104 -71 -19 0 19 40 56 59 49 24 48 24
48 12z m-2767 -46 c18 -39 49 -55 103 -55 31 0 37 -4 51 -37 19 -46 28 -53 75
-53 28 0 44 -8 72 -36 20 -20 34 -39 31 -42 -3 -3 -36 -6 -73 -6 -54 -1 -78 4
-124 27 -82 41 -145 120 -161 205 -8 42 5 41 26 -3z m367 -155 c34 -34 22 -40
-25 -13 -25 13 -45 27 -45 29 0 13 53 1 70 -16z m2095 12 c-26 -23 -85 -52
-85 -43 0 21 40 51 67 51 15 0 23 -4 18 -8z m-1829 -83 c24 -6 46 -15 49 -19
3 -4 -24 -13 -59 -19 -50 -9 -70 -8 -97 2 -19 8 -43 17 -54 21 -16 6 -17 9 -5
16 21 13 112 12 166 -1z m1664 1 c12 -7 7 -12 -21 -24 -19 -8 -47 -18 -61 -21
-29 -7 -143 13 -133 23 24 25 185 41 215 22z m7 -97 c-22 -42 -143 -184 -135
-158 6 20 153 222 156 215 2 -5 -8 -30 -21 -57z m-1527 32 c23 -13 20 -14 -49
-15 -92 0 -83 12 19 28 3 1 16 -5 30 -13z m1315 -5 c14 -6 -4 -9 -55 -9 -52
-1 -70 2 -60 9 18 12 88 12 115 0z m-1439 -40 c24 -22 39 -40 33 -40 -18 0
-63 30 -82 56 -28 38 1 29 49 -16z m1513 23 c-23 -30 -53 -52 -82 -62 -24 -9
-21 -4 20 34 49 45 90 63 62 28z m-1327 -16 c7 -7 22 -18 33 -25 20 -11 20
-11 -2 -12 -12 0 -24 4 -27 9 -3 5 -25 12 -48 15 -69 11 -82 26 -21 26 29 0
57 -6 65 -13z m1173 -2 c-16 -8 -42 -14 -57 -15 -15 0 -29 -4 -32 -9 -6 -9
-46 -22 -46 -15 0 2 17 15 37 29 27 18 50 25 83 24 l45 -1 -30 -13z m-1248
-16 c43 -11 71 -33 56 -42 -11 -7 -80 24 -108 48 -12 9 -14 14 -5 11 8 -3 34
-10 57 -17z m1288 2 c-16 -15 -89 -51 -103 -51 -28 0 -4 26 39 42 49 19 78 23
64 9z m-287 -75 c-10 -7 -14 -17 -10 -21 4 -5 2 -5 -5 -2 -6 4 -27 -11 -47
-35 -39 -45 -48 -34 -19 26 15 33 28 40 83 44 12 1 11 -1 -2 -12z"/>
<path d="M1900 1205 c0 -8 7 -15 15 -15 8 0 15 7 15 15 0 8 -7 15 -15 15 -8 0
-15 -7 -15 -15z"/>
<path d="M2040 1115 c0 -9 5 -15 11 -13 6 2 11 8 11 13 0 5 -5 11 -11 13 -6 2
-11 -4 -11 -13z"/>
<path d="M4340 1205 c0 -8 7 -15 15 -15 8 0 15 7 15 15 0 8 -7 15 -15 15 -8 0
-15 -7 -15 -15z"/>
<path d="M4206 1123 c-11 -11 -6 -23 9 -23 8 0 15 4 15 9 0 13 -16 22 -24 14z"/>
<path d="M1833 1088 c2 -7 10 -13 17 -13 7 0 15 6 18 13 2 7 -5 12 -18 12 -13
0 -20 -5 -17 -12z"/>
<path d="M1992 1009 c2 -6 8 -10 13 -10 5 0 11 4 13 10 2 6 -4 11 -13 11 -9 0
-15 -5 -13 -11z"/>
<path d="M1328 1903 c7 -3 16 -2 19 1 4 3 -2 6 -13 5 -11 0 -14 -3 -6 -6z"/>
<path d="M1102 1811 c-7 -21 -12 -47 -11 -57 0 -11 7 5 15 35 17 62 13 81 -4
22z"/>
<path d="M4955 1833 c4 -10 10 -28 12 -40 3 -13 9 -23 13 -23 4 0 3 18 -2 40
-6 22 -15 40 -20 40 -6 0 -7 -8 -3 -17z"/>
<path d="M5167 1775 c3 -22 7 -42 9 -44 8 -9 2 45 -6 64 -7 14 -8 8 -3 -20z"/>
<path d="M1086 1675 c7 -72 33 -144 68 -190 15 -19 29 -48 32 -64 9 -42 25
-53 78 -49 l46 3 -22 45 c-21 42 -26 45 -65 48 -38 3 -46 8 -72 45 -33 48 -40
68 -57 157 l-13 65 5 -60z"/>
<path d="M5177 1691 c-4 -18 -7 -43 -6 -55 1 -11 5 -1 10 24 5 25 7 49 6 55
-2 5 -7 -5 -10 -24z"/>
<path d="M5142 1555 c-30 -68 -54 -90 -96 -87 -36 4 -57 -15 -74 -65 l-11 -33
48 0 c52 0 64 9 75 53 4 15 20 46 36 68 27 38 56 106 48 114 -1 2 -14 -21 -26
-50z"/>
<path d="M1888 1323 c12 -2 30 -2 40 0 9 3 -1 5 -23 4 -22 0 -30 -2 -17 -4z"/>
<path d="M4318 1323 c12 -2 32 -2 45 0 12 2 2 4 -23 4 -25 0 -35 -2 -22 -4z"/>
<path d="M1828 1313 c7 -3 16 -2 19 1 4 3 -2 6 -13 5 -11 0 -14 -3 -6 -6z"/>
<path d="M1764 1295 c-24 -18 -7 -19 26 0 16 9 19 14 9 15 -8 0 -24 -7 -35
-15z"/>
<path d="M2087 1274 c-9 -9 9 -41 28 -48 11 -4 15 2 15 24 0 22 -5 30 -18 30
-10 0 -22 -3 -25 -6z"/>
<path d="M4140 1250 c0 -28 2 -30 20 -20 11 6 20 20 20 30 0 13 -7 20 -20 20
-16 0 -20 -7 -20 -30z"/>
<path d="M1692 1095 c0 -16 2 -22 5 -12 2 9 2 23 0 30 -3 6 -5 -1 -5 -18z"/>
<path d="M4402 1088 c5 -15 28 -18 29 -3 0 6 -7 12 -17 13 -10 3 -15 -1 -12
-10z"/>
<path d="M4562 1040 c0 -14 2 -19 5 -12 2 6 2 18 0 25 -3 6 -5 1 -5 -13z"/>
<path d="M1701 1034 c0 -11 3 -14 6 -6 3 7 2 16 -1 19 -3 4 -6 -2 -5 -13z"/>
<path d="M2393 1033 c26 -2 67 -2 90 0 23 2 2 3 -48 3 -49 0 -68 -1 -42 -3z"/>
<path d="M3788 1033 c23 -2 61 -2 85 0 23 2 4 4 -43 4 -47 0 -66 -2 -42 -4z"/>
<path d="M1388 1023 c7 -3 16 -2 19 1 4 3 -2 6 -13 5 -11 0 -14 -3 -6 -6z"/>
<path d="M2535 1020 c3 -5 16 -10 28 -10 18 0 19 2 7 10 -20 13 -43 13 -35 0z"/>
<path d="M3705 1021 c-30 -12 53 -23 140 -19 65 4 64 4 -23 6 -59 1 -91 6 -87
12 7 12 -2 12 -30 1z"/>
<path d="M4250 1004 c0 -9 5 -14 12 -12 18 6 21 28 4 28 -9 0 -16 -7 -16 -16z"/>
<path d="M2393 1003 c26 -2 68 -2 95 0 26 2 4 3 -48 3 -52 0 -74 -1 -47 -3z"/>
<path d="M4551 994 c0 -11 3 -14 6 -6 3 7 2 16 -1 19 -3 4 -6 -2 -5 -13z"/>
<path d="M1905 920 c-12 -20 7 -30 58 -29 30 1 40 4 24 6 -16 3 -31 11 -34 19
-6 16 -39 19 -48 4z"/>
<path d="M4320 915 c-7 -8 -27 -16 -44 -16 -23 -1 -19 -3 19 -10 52 -8 78 1
68 27 -7 18 -27 18 -43 -1z"/>
<path d="M2155 845 c13 -144 39 -218 101 -288 19 -20 34 -41 34 -47 0 -5 11
-17 25 -26 32 -21 67 -10 63 19 -2 17 -14 25 -53 34 -88 22 -135 105 -156 275
-13 110 -24 134 -14 33z"/>
<path d="M2818 883 c7 -3 16 -2 19 1 4 3 -2 6 -13 5 -11 0 -14 -3 -6 -6z"/>
<path d="M3418 883 c6 -2 18 -2 25 0 6 3 1 5 -13 5 -14 0 -19 -2 -12 -5z"/>
<path d="M4097 798 c-9 -128 -78 -258 -135 -258 -38 0 -73 -22 -70 -44 4 -30
43 -32 68 -4 103 114 138 186 147 306 3 39 4 72 1 72 -3 0 -8 -33 -11 -72z"/>
<path d="M3417 829 c7 -7 15 -10 18 -7 3 3 -2 9 -12 12 -14 6 -15 5 -6 -5z"/>
<path d="M2810 820 c-8 -5 -10 -10 -5 -10 6 0 17 5 25 10 8 5 11 10 5 10 -5 0
-17 -5 -25 -10z"/>
<path d="M2740 715 c13 -14 26 -25 28 -25 3 0 -5 11 -18 25 -13 14 -26 25 -28
25 -3 0 5 -11 18 -25z"/>
<path d="M3514 708 l-19 -23 23 19 c21 18 27 26 19 26 -2 0 -12 -10 -23 -22z"/>
</g>
</svg>
